<svg class="svg-icon" style="width: 1em; height: 1em;vertical-align: middle;fill: currentColor;overflow: hidden;" viewBox="0 0 1024 1024" version="1.1" xmlns="http://www.w3.org/2000/svg"><path d="M802.6 752.1H240v-411h621v352.6c0 32.3-26.2 58.4-58.4 58.4z" fill="#25B195" /><path d="M800.8 263.7H236.1c-42.4 0-76.6 34.3-76.6 74.6v344.9c0 40.3 34.3 74.6 74.6 74.6h566.7c40.3 0 74.6-34.3 74.6-74.6V338.3c2-40.3-32.3-74.6-74.6-74.6z m46.4 74.6v344.9c0 6-2 12.1-4 18.2L647.5 505.7l191.6-191.6c4 8.1 8.1 16.1 8.1 24.2z m-46.4-44.4c6.1 0 10.1 2 16.1 2h-2L550.7 562.2c-16.1 16.1-46.4 16.1-64.5 0L222 298h-2c4-2 10.1-2 16.1-2l564.7-2.1zM193.7 701.3c-2-6.1-4-10.1-4-16.1V338.3c0-8.1 2-18.2 8.1-24.2l191.6 191.6-195.7 195.6z m42.4 28.3c-8.1 0-14.1-2-22.2-6L409.5 528l56.5 56.5c14.1 14.1 32.3 22.2 52.4 22.2 20.2 0 38.3-8.1 52.4-22.2l54.5-54.4 195.6 195.6c-6.1 4-14.1 6.1-22.2 6.1H236.1v-2.2z m0 0" fill="#595857" /></svg>