<svg class="svg-icon" style="width: 1em; height: 1em;vertical-align: middle;fill: currentColor;overflow: hidden;" viewBox="0 0 1024 1024" version="1.1" xmlns="http://www.w3.org/2000/svg"><path d="M736.1 660.3h-48.4L660.8 737l-95.1-76.7H275.9c-8.7 0-15.8-7.3-15.8-16.2V413.4c0-34.1 26.9-61.8 60.2-61.8H827c9.9 0 18 8.3 18 18.5v178.3c0 61.8-48.8 111.9-108.9 111.9z" fill="#25B195" /><path d="M667.3 767.5c-5.5 0-10.9-1.7-15.4-5.1L537 677.5H311c-76.4 0-138.5-62.1-138.5-138.5V411c0-76.4 62.1-138.5 138.5-138.5h414c76.4 0 138.5 62.1 138.5 138.5v128c0 76.4-62.1 138.5-138.5 138.5h-22l-9.9 67.6c-1.3 9.2-7.2 16.8-15.8 20.3-3.2 1.4-6.6 2.1-10 2.1zM311 309.5c-56 0-101.5 45.5-101.5 101.5v128c0 56 45.5 101.5 101.5 101.5h238.1l110.1 81.3 11.9-81.3h54c56 0 101.5-45.5 101.5-101.5V411c0-56-45.5-101.5-101.5-101.5H311z" fill="#666767" /><path d="M362 479.9m-49 0a49 49 0 1 0 98 0 49 49 0 1 0-98 0Z" fill="#595857" /><path d="M523.6 479.9m-49 0a49 49 0 1 0 98 0 49 49 0 1 0-98 0Z" fill="#595857" /><path d="M685.1 479.9m-49 0a49 49 0 1 0 98 0 49 49 0 1 0-98 0Z" fill="#595857" /></svg>