<svg class="svg-icon" style="width: 1em; height: 1em;vertical-align: middle;fill: currentColor;overflow: hidden;" viewBox="0 0 1024 1024" version="1.1" xmlns="http://www.w3.org/2000/svg"><path d="M859.7 740.1l-97.6-97.6c-18.3-18.3-52-14.4-75.2 8.8l-42.3 42.3c-23.2 23.2-56.9 27.1-75.2 8.8l-182.9-183c-15.7-15.7-15.1-42.5-0.1-64.4-6.4-5.6-11.3-13.7-13.4-21.4-2.7-9.9-1.8-24.8 4.4-33.4 11-15.4 23.4-28.9 37.1-41.9 9.3-8.9 18.7-17.7 27.1-27.5 1.2-1.8 2.5-3.5 3.9-5l-89.1-89.1c-25.1-25.1-75.1-7.3-91.1 32.5-23.3 58-24.7 127.4-5.9 198.4 1.7 1.9 3 4 3.9 6.1 6.5 15.4 12 31.1 18.2 46.5 4 8.6 8.6 16.8 14.2 24.5 8.1 10.3 16.4 20.5 24 31.2 6.2 8.7 12.3 17.5 18.7 26 12.1 15 25.6 28.9 39.2 42.5 7.7 7.7 15.4 15.3 22.8 23.3 5.5 6 10.7 12.1 16.7 17.5 10.7 7.3 22.4 13 34.1 18.6 14.9 7.2 29.4 15.2 44.1 23 30 16 60.4 31.4 91.7 44.8 22.5 9.2 45.2 17.3 69.2 21.3 35.1 3.7 70.4-0.2 105.3-4.8 24.2-3.3 48.6-7.7 71.5-16.4 4.4-2.1 8.7-4.4 12.7-7 0.7-0.7 1.4-1.3 2.1-2 0.8-1.3 1.5-2.7 2.1-4.1 2.6-6 7.8-10.8 13.6-14.3-1.2-1.5-2.4-2.9-3.8-4.2z" fill="#25B195" /><path d="M719.1 809c-36.8 0-75.1-5.9-113.8-17.5C523.6 767 445.4 719 379.1 652.7c-66.3-66.3-114.3-144.6-138.8-226.2-11.9-39.7-17.8-78.8-17.5-116.5 0.3-38.6 7.1-74.7 20.2-107.3 11.1-27.6 35.6-48.4 64.1-54.2 22-4.5 42.9 1.1 57.3 15.5l90.1 90.1c12.8 12.8 18.8 31.4 16.5 51-2.1 18.3-11.1 36.2-25.3 50.4l-42.3 42.3c-8.2 8.2-13.5 18.6-14.7 28.5-0.6 4.9-0.6 14.1 5.9 20.5l182.9 182.9c10.9 10.9 33.4 6.9 49-8.8l42.3-42.3c14.2-14.2 32-23.1 50.4-25.3 19.7-2.3 38.2 3.7 51 16.5l97.6 97.6c14.4 14.4 20 35.2 15.5 57.3-5.8 28.4-26.6 53-54.2 64.1-32.6 13.1-68.7 19.9-107.3 20.2h-2.7zM321.8 184.1c-2.8 0-5.3 0.4-7.3 0.8-16.1 3.3-30.7 15.8-37.2 31.8-47.6 118.5 5 287.1 127.9 410 122.9 122.9 291.5 175.5 410 127.9 16-6.4 28.5-21 31.8-37.2 1.2-5.7 2-16.3-5.4-23.7L744 596c-6.5-6.5-15.6-6.5-20.5-5.9-9.9 1.2-20.3 6.5-28.5 14.7l-42.3 42.3c-14.2 14.2-32 23.1-50.4 25.3-19.7 2.3-38.2-3.7-51-16.5L368.4 473c-12.8-12.8-18.8-31.4-16.5-51 2.1-18.3 11.1-36.2 25.3-50.4l42.3-42.3c15.7-15.7 19.7-38.1 8.8-49l-90.1-90.1c-4.8-4.8-11.1-6.1-16.4-6.1z" fill="#595857" /></svg>